PathFileType	4	(X/Y/Z)	RBDS013\RBDS013runT35.trc
DataRate	CameraRate	NumFrames	NumMarkers	Units	OrigDataRate	OrigDataStartFrame	OrigNumFrames
150.000000	150.000000	4	33	mm	150.000000	2250	4500
Frame#	Time	L.ASIS			L.Heel.Bottom			L.Heel.Lateral			L.Heel.Top			L.Iliac.Crest			L.MT1			L.MT5			L.PSIS			L.Shank.Bottom.Lateral			L.Shank.Bottom.Medial			L.Shank.Top.Lateral			L.Shank.Top.Medial			L.Thigh.Bottom.Lateral			L.Thigh.Bottom.Medial			L.Thigh.Top.Lateral			L.Thigh.Top.Medial			R.ASIS			R.ASY			R.Heel.Bottom			R.Heel.Lateral			R.Heel.Top			R.Iliac.Crest			R.MT1			R.MT5			R.PSIS			R.Shank.Bottom.Lateral			R.Shank.Bottom.Medial			R.Shank.Top.Lateral			R.Shank.Top.Medial			R.Thigh.Bottom.Lateral			R.Thigh.Bottom.Medial			R.Thigh.Top.Lateral			R.Thigh.Top.Medial			
		X1	Y1	Z1	X2	Y2	Z2	X3	Y3	Z3	X4	Y4	Z4	X5	Y5	Z5	X6	Y6	Z6	X7	Y7	Z7	X8	Y8	Z8	X9	Y9	Z9	X10	Y10	Z10	X11	Y11	Z11	X12	Y12	Z12	X13	Y13	Z13	X14	Y14	Z14	X15	Y15	Z15	X16	Y16	Z16	X17	Y17	Z17	X18	Y18	Z18	X19	Y19	Z19	X20	Y20	Z20	X21	Y21	Z21	X22	Y22	Z22	X23	Y23	Z23	X24	Y24	Z24	X25	Y25	Z25	X26	Y26	Z26	X27	Y27	Z27	X28	Y28	Z28	X29	Y29	Z29	X30	Y30	Z30	X31	Y31	Z31	X32	Y32	Z32	X33	Y33	Z33	

2251	15	2260.4469705346	947.2872171510488	908.3644195959823	2368.182633536462	71.10079442312673	997.8102363429388	2385.838946607718	92.45179097522781	951.7426092313719	2366.94570575413	117.9379347977737	990.3098003824983	2202.949456238784	1026.859457102046	869.4639031629644	2570.635584932078	135.7367267046471	1013.606364204783	2541.741205457027	98.68753029428504	913.1638251898416	2107.207162893264	1009.160101320028	965.2808446635037	2395.000637277827	217.3958452782241	924.0265226557328	2358.382238820688	211.6607372506946	965.2691159716699	2366.125933800769	291.0346698444566	908.8860720830257	2330.73326650453	286.1447545958811	949.1243435230579	2334.076076434651	622.080603370808	875.5665038574631	2269.578324110197	596.4098921188579	898.7199068789632	2285.355135110796	717.9386063791237	852.9578358457986	2223.890614409311	694.2549009886184	874.1849469806843	2268.806251759569	950.9762272496461	1135.057961700601	1646.118185003386	323.6055335254826	1103.031836754227	1571.099539885985	485.08067537827	1031.502852212059	1583.070410864913	474.8395338406476	1079.991039769735	1620.208827343282	486.3028788177276	1045.126469379328	2236.068603914772	1027.74229169585	1159.564860450097	1624.081024453386	284.3397834608132	1055.772161978991	1583.36342319017	329.8423760347158	1145.56693310388	2110.771389416584	1019.159056803352	1065.847521943311	1689.526478172331	473.219703806548	1117.40198049268	1686.213380997549	499.3928982689904	1073.368302713181	1762.813009483707	512.7754806925641	1132.905224173715	1755.61853651413	538.5782560651073	1086.670952687995	2068.270763688868	669.2527946577626	1180.675660936567	2016.822579821207	689.6096168702755	1131.913958471887	2099.999310057528	774.2743399640834	1186.347586864797	2052.552123046154	793.5233597492248	1138.494288891977	
2252	15.00666666666667	2259.979750572254	945.0586997778598	908.40478440453	2377.068891342754	66.12834445947085	998.6360633994011	2394.292126212247	87.32719158241919	952.3200084111327	2374.430394853509	112.8285283337131	990.4205711879522	2202.246403789672	1023.355325073126	869.265105923537	2577.642446689019	136.9711139663213	1014.173962997831	2550.137506361448	97.3724302890035	914.1708616521787	2106.423340456582	1005.533548341562	964.7760798210614	2399.859943772069	213.5208294905835	923.745311614149	2362.746968824803	206.6258254285052	964.5414995422103	2368.587271828036	286.3048849976249	908.2490400827667	2332.73838585848	280.2599196172355	948.0715322058834	2329.767051589494	616.9076668495434	874.7002004766125	2264.958592139768	592.8179283317986	898.7968793538658	2282.864618057572	713.8615308366127	852.4374149214798	2221.170816121425	691.5971061809045	874.4606564550953	2268.987354288921	949.9899696383114	1135.452609585277	1638.974931436792	343.3582749367384	1101.891155348578	1573.949836982282	509.4186094057384	1030.733570778993	1585.44709113791	498.5187110790623	1079.277487903912	1623.108134073973	507.4172308431648	1044.074431408875	2234.08736550361	1026.951616685198	1159.607024235881	1613.980166253172	305.460419942646	1055.129449712827	1576.817146008715	353.6801374742686	1144.917974615293	2110.377079034129	1015.838495932823	1064.936733555704	1691.077224966579	488.8794322102008	1116.949740802489	1689.314578716424	515.8126115911283	1073.336776933457	1766.718016234521	523.5586448156444	1132.754014188976	1761.0585173051	550.4403524206861	1086.980450787207	2072.3842269464	665.1035636438538	1180.995738858272	2020.622745677378	684.7011003330556	1132.198257591378	2102.529206366957	770.4974065966196	1186.488885412645	2054.780064668514	789.053224616278	1138.691509371544	
2253	15.01333333333333	2259.440578613485	942.6314990219695	908.3503890197725	2381.926534104782	61.72710957131861	999.3055642454104	2398.936018882373	82.64144160273032	952.7880708005581	2378.424983915433	108.2731154361802	990.4644450695902	2201.631138095976	1019.811066293415	869.0970655042656	2581.105044852501	136.3741069001266	1014.745021513121	2554.662877146144	94.8753028361696	915.1058063371123	2105.537977707404	1001.480577563666	964.5199595356574	2402.096193152041	209.6567079099849	923.5089449318235	2364.626316859001	201.9477638681945	964.0264928102674	2369.238733024987	281.8627088758248	907.8103766706852	2333.072699858238	275.0087213224879	947.3824779654954	2326.228946730099	612.2388009517804	874.1167242909966	2261.185851888161	589.4325413618561	898.9179607182076	2280.811556906687	710.078914527198	852.1548430143996	2218.987762090302	688.9734778831639	874.8036053631631	2269.196284547507	948.3376607153486	1135.767460877273	1633.996801550322	362.9678236078681	1100.472280557291	1579.16532998138	533.2949407465417	1030.361744658541	1590.19007505734	521.6023303796864	1078.928800943867	1628.191428333318	528.005331327246	1043.338766315531	2232.320135641143	1025.360272319655	1159.71654007329	1606.031444473836	326.7780241389701	1054.088941945472	1572.715962691885	377.2059318694304	1144.103488459274	2109.949890983222	1011.787628428925	1064.328880850322	1694.522037116106	503.8565643511882	1116.645570212992	1694.293154000993	531.5989763619048	1073.575268785315	1772.223276572254	533.5108701005341	1132.781936825764	1768.09181477442	561.5298401358187	1087.592184447728	2076.8125500916	660.2003142165912	1181.276025309686	2024.684928378493	678.9799561120461	1132.467286301547	2105.257910961113	765.9544606279176	1186.594736791416	2057.153419646374	783.7820351429621	1138.936395359888	
2254	15.02	2258.835666701375	940.0079281470325	908.1653687530774	2382.676085236226	57.68522011124007	999.7938879440546	2399.692034789444	78.22838710994654	953.1373635675366	2378.86354662568	104.0915383413532	990.4621840529616	2201.064873965611	1016.281679992135	868.9511560429288	2581.068829852251	133.7039539335615	1015.357532313731	2555.31135517406	91.05651843571827	915.9543006963521	2104.597961651932	997.0469976063551	964.5219844332074	2401.701173078138	205.612488020215	923.3445309874816	2364.013827395083	197.4780132429926	963.7479810843004	2368.110208252989	277.5577104881008	907.5805296832957	2331.761653137071	270.289776515738	947.0642438816743	2323.52436113701	608.0258923513627	873.7903010442974	2258.324191505012	586.1588528295787	899.0645137289791	2279.194149985193	706.5124915161106	852.0720810065502	2217.3288126925	686.2662848431037	875.1790876921356	2269.445963621397	946.002967082339	1135.964257924722	1631.202635838324	382.2168248897323	1098.843176171037	1586.669628527995	556.3920110613657	1030.344901567721	1597.181212660117	543.7907004212342	1078.902191945394	1635.36360508423	547.8144015395103	1042.902065103644	2230.84240369886	1022.924669563032	1159.8879337126	1600.375933533609	348.0635363064226	1052.701860069529	1571.048580684475	400.1547973065256	1143.158238412364	2109.497654793493	1007.068691214044	1064.068463924106	1699.765504579562	518.0337286644763	1116.466279152082	1701.080928059923	546.5952886286515	1074.024212667676	1779.206922364529	542.57613932282	1132.956706824718	1776.629789299045	571.7433519433441	1088.436746269032	2081.544937285663	654.5800055965592	1181.525041053933	2028.991655196856	672.4910858033038	1132.752002885727	2108.193676967143	760.6793610474214	1186.682112647859	2059.665941406082	777.7544735859414	1139.261578581707	
